<svg width="24" height="22" viewBox="0 0 24 22" fill="none" xmlns="http://www.w3.org/2000/svg">
<path d="M12 0.500061C18.3931 0.500061 23.4999 5.24173 23.5 11.002C23.5 16.7624 18.3932 21.504 12 21.504H2.40039C1.88318 21.504 1.39466 21.3155 1.04102 20.9913C0.688815 20.6684 0.5 20.2401 0.5 19.8038V11.002C0.50011 5.24173 5.60686 0.500061 12 0.500061ZM12 1.70026C9.33465 1.70026 6.77081 2.67116 4.87402 4.41022C2.97588 6.15056 1.90044 8.52045 1.90039 11.002V20.3038H12C14.6652 20.3038 17.2292 19.3337 19.126 17.5948C21.0242 15.8544 22.0996 13.4837 22.0996 11.002C22.0996 8.52045 21.0241 6.15056 19.126 4.41022C17.2292 2.67116 14.6654 1.70026 12 1.70026ZM11.999 13.7022C12.1901 13.7024 12.3673 13.7703 12.4951 13.8809C12.6217 13.9905 12.6884 14.1314 12.6973 14.2706C12.7061 14.4092 12.6584 14.553 12.5498 14.6719C12.4406 14.7916 12.2775 14.8762 12.0898 14.8975L11.9727 14.9034H8.40039L8.26074 14.8907C8.12428 14.8665 8.00022 14.8077 7.9043 14.7247C7.77794 14.6151 7.71105 14.474 7.70215 14.335C7.69337 14.1964 7.74203 14.0526 7.85059 13.9337C7.95837 13.8157 8.11828 13.7317 8.30273 13.709L8.42773 13.7022H11.999ZM8.40039 9.30182H15.5996C15.7984 9.30182 15.9818 9.3745 16.1104 9.49225C16.2375 9.60883 16.2998 9.75792 16.2998 9.9024C16.2997 10.0468 16.2374 10.1951 16.1104 10.3116C15.9818 10.4294 15.7985 10.502 15.5996 10.502H8.40039C8.20153 10.502 8.01825 10.4294 7.88965 10.3116C7.76261 10.1951 7.70032 10.0468 7.7002 9.9024C7.7002 9.75792 7.76249 9.60883 7.88965 9.49225C8.01824 9.3745 8.20157 9.30182 8.40039 9.30182Z" fill="currentColor" stroke="currentColor"/>
</svg>
