<svg width="26" height="26" viewBox="0 0 26 26" fill="none" xmlns="http://www.w3.org/2000/svg">
<path d="M4.1995 24.9997C2.4325 24.9997 1 23.6931 1 22.0798V10.3441C1 9.45747 1.4425 8.6175 2.2 8.06418L11.0005 1.64035C11.5628 1.22647 12.2699 1 13 1C13.7301 1 14.4372 1.22647 14.9995 1.64035L23.7985 8.06418C24.5575 8.6175 25 9.45747 25 10.3441V22.0798C25 23.6931 23.5675 24.9997 21.8005 24.9997H4.1995Z" stroke="currentColor" stroke-width="2" stroke-linecap="round" stroke-linejoin="round"/>
<path d="M9.25 25V17.6668C9.25 16.9596 9.56607 16.2814 10.1287 15.7813C10.6913 15.2812 11.4544 15.0002 12.25 15.0002H13.75C14.5456 15.0002 15.3087 15.2812 15.8713 15.7813C16.4339 16.2814 16.75 16.9596 16.75 17.6668V25" stroke="currentColor" stroke-width="2" stroke-linecap="round" stroke-linejoin="round"/>
</svg>
