<svg width="26" height="26" viewBox="0 0 26 26" fill="none" xmlns="http://www.w3.org/2000/svg">
<path d="M12.3684 20.3333L8.57895 18.3333M8.57895 18.3333L1 22.3333V5L8.57895 1M8.57895 18.3333V1M8.57895 1L16.1579 5M16.1579 5L23.7368 1V11M16.1579 5V12.3333M21.2105 19.6667V19.68M23.8897 22.4947C24.4198 21.9353 24.7808 21.2226 24.9271 20.4466C25.0734 19.6707 24.9984 18.8663 24.7116 18.1354C24.4249 17.4044 23.9392 16.7796 23.316 16.34C22.6928 15.9004 21.9601 15.6658 21.2105 15.6658C20.461 15.6658 19.7283 15.9004 19.1051 16.34C18.4819 16.7796 17.9962 17.4044 17.7094 18.1354C17.4226 18.8663 17.3476 19.6707 17.4939 20.4466C17.6403 21.2226 18.0013 21.9353 18.5314 22.4947C19.0594 23.0529 19.9524 23.888 21.2105 25C22.5385 23.8133 23.4316 22.9782 23.8897 22.4947Z" stroke="currentColor" stroke-width="2" stroke-linecap="round" stroke-linejoin="round"/>
</svg>
