<svg width="23" height="24" viewBox="0 0 23 24" fill="none" xmlns="http://www.w3.org/2000/svg">
<path fill-rule="evenodd" clip-rule="evenodd" d="M16.6111 14.4C18.2575 14.4001 19.8403 14.9971 21.0294 16.0664C22.2185 17.1357 22.9222 18.5949 22.9936 20.1396L23 20.4V21.6C23.0002 22.2055 22.7567 22.7887 22.3183 23.2327C21.8799 23.6766 21.279 23.9486 20.6361 23.994L20.4444 24H2.55556C1.91082 24.0002 1.28983 23.7715 0.817078 23.3598C0.344324 22.9481 0.0547442 22.3838 0.00638904 21.78L0 21.6V20.4C9.5121e-05 18.8538 0.635748 17.3674 1.7744 16.2507C2.91305 15.1339 4.46679 14.4731 6.11161 14.406L6.38889 14.4H16.6111ZM16.6111 16.8H6.38889C5.41112 16.7999 4.47029 17.1508 3.75889 17.7807C3.04749 18.4107 2.61931 19.2721 2.56194 20.1888L2.55556 20.4V21.6H20.4444V20.4C20.4445 19.4817 20.0709 18.5982 19.4001 17.9301C18.7294 17.262 17.8121 16.8599 16.836 16.806L16.6111 16.8ZM11.5 0C13.1944 0 14.8195 0.632141 16.0176 1.75736C17.2158 2.88258 17.8889 4.4087 17.8889 6C17.8889 7.5913 17.2158 9.11742 16.0176 10.2426C14.8195 11.3679 13.1944 12 11.5 12C9.80556 12 8.18052 11.3679 6.98237 10.2426C5.78422 9.11742 5.11111 7.5913 5.11111 6C5.11111 4.4087 5.78422 2.88258 6.98237 1.75736C8.18052 0.632141 9.80556 0 11.5 0ZM11.5 2.4C10.9966 2.4 10.4981 2.49312 10.033 2.67403C9.56797 2.85495 9.14538 3.12012 8.78942 3.45442C8.43347 3.78871 8.1511 4.18557 7.95846 4.62234C7.76582 5.05911 7.66667 5.52724 7.66667 6C7.66667 6.47276 7.76582 6.94089 7.95846 7.37766C8.1511 7.81443 8.43347 8.21129 8.78942 8.54559C9.14538 8.87988 9.56797 9.14505 10.033 9.32597C10.4981 9.50688 10.9966 9.6 11.5 9.6C12.5167 9.6 13.4917 9.22072 14.2106 8.54559C14.9295 7.87045 15.3333 6.95478 15.3333 6C15.3333 5.04522 14.9295 4.12955 14.2106 3.45442C13.4917 2.77928 12.5167 2.4 11.5 2.4Z" fill="currentColor"/>
</svg>
