<svg width="14" height="13" viewBox="0 0 14 13" fill="none" xmlns="http://www.w3.org/2000/svg">
<path d="M9.70239 2.44942C9.77438 2.39755 9.83321 2.32976 9.8742 2.25144C9.9152 2.17311 9.93725 2.08639 9.9386 1.99814L9.96036 0.57711C9.96267 0.426358 9.9045 0.28087 9.79865 0.172653C9.6928 0.064436 9.54794 0.0023545 9.39594 6.55217e-05C9.32067 -0.00106787 9.24592 0.0125127 9.17595 0.040031C9.10598 0.0675494 9.04216 0.108467 8.98813 0.160448C8.87901 0.265427 8.81642 0.409096 8.81411 0.559849L8.79236 1.98088C8.79121 2.05553 8.80491 2.12967 8.83265 2.19906C8.8604 2.26846 8.90166 2.33176 8.95407 2.38534C9.00648 2.43892 9.06902 2.48174 9.13812 2.51136C9.20721 2.54097 9.28151 2.55679 9.35678 2.55793C9.48078 2.55979 9.60206 2.52172 9.70239 2.44942ZM12.2262 5.12093C12.081 5.07652 11.9238 5.09117 11.7895 5.16165C11.6551 5.23213 11.5544 5.35267 11.5096 5.49675C11.4649 5.64083 11.4796 5.79665 11.5507 5.92993C11.6218 6.06322 11.7433 6.16304 11.8886 6.20745L13.258 6.62605C13.343 6.65205 13.433 6.65805 13.5208 6.64358C13.6086 6.62911 13.6917 6.59458 13.7637 6.5427C13.8641 6.4704 13.938 6.36778 13.9746 6.25023C13.9967 6.17889 14.0045 6.10392 13.9975 6.02959C13.9904 5.95526 13.9687 5.88304 13.9335 5.81705C13.8983 5.75105 13.8504 5.69258 13.7924 5.64496C13.7344 5.59735 13.6676 5.56152 13.5956 5.53953L12.2262 5.12093ZM11.7674 2.36681L10.6081 3.20217C10.4851 3.29079 10.4026 3.42424 10.3789 3.57315C10.3551 3.72206 10.3919 3.87425 10.4813 3.99622C10.5706 4.1182 10.7052 4.19997 10.8553 4.22356C11.0055 4.24714 11.1589 4.21061 11.2819 4.12199L12.4412 3.28663C12.5642 3.19801 12.6466 3.06456 12.6704 2.91565C12.6942 2.76674 12.6574 2.61455 12.568 2.49258C12.4787 2.3706 12.3441 2.28882 12.194 2.26524C12.0438 2.24165 11.8904 2.27819 11.7674 2.36681ZM0.742018 6.36935C0.596743 6.32494 0.439631 6.33959 0.305244 6.41007C0.170857 6.48055 0.0702046 6.60109 0.0254284 6.74517C-0.0193477 6.88925 -0.00457948 7.04507 0.0664842 7.17835C0.137548 7.31164 0.259086 7.41146 0.404362 7.45587L1.77377 7.87447C1.85893 7.90167 1.94934 7.90871 2.03775 7.89503C2.12615 7.88136 2.2101 7.84735 2.28288 7.79572C2.38321 7.72342 2.4572 7.6208 2.49372 7.50325C2.5159 7.43191 2.52368 7.35694 2.51664 7.28261C2.50959 7.20828 2.48786 7.13606 2.45267 7.07007C2.41748 7.00407 2.36953 6.9456 2.31156 6.89798C2.25359 6.85037 2.18672 6.81454 2.11479 6.79255L0.742018 6.36935ZM4.06477 11.0019L4.04301 12.4229C4.0407 12.5736 4.09887 12.7191 4.20472 12.8273C4.31057 12.9356 4.45543 12.9976 4.60743 12.9999C4.73144 13.0018 4.85271 12.9637 4.95305 12.8914C5.02504 12.8396 5.08386 12.7718 5.12486 12.6934C5.16586 12.6151 5.18791 12.5284 5.18926 12.4402L5.21101 11.0191C5.21332 10.8684 5.15515 10.7229 5.0493 10.6147C4.94345 10.5064 4.79859 10.4444 4.64659 10.4421C4.49459 10.4398 4.3479 10.4975 4.23879 10.6025C4.12967 10.7074 4.06708 10.8511 4.06477 11.0019ZM3.52547 9.00838C3.43612 8.8864 3.30157 8.80463 3.15142 8.78104C3.00127 8.75746 2.84783 8.79399 2.72484 8.88261L1.56554 9.71797C1.44255 9.80659 1.3601 9.94004 1.33632 10.089C1.31254 10.2379 1.34938 10.39 1.43873 10.512C1.52809 10.634 1.66264 10.7158 1.81279 10.7394C1.96293 10.7629 2.11638 10.7264 2.23936 10.6378L3.39866 9.80243C3.52165 9.71381 3.6041 9.58036 3.62788 9.43145C3.65166 9.28254 3.61483 9.13035 3.52547 9.00838ZM11.3144 7.46438L9.91024 10.1416C9.8809 10.1951 9.83986 10.2416 9.79012 10.2774C9.74038 10.3132 9.68319 10.3376 9.62273 10.3487L6.59376 10.866C6.56656 10.8682 6.5405 10.8778 6.51842 10.8937C6.49634 10.9096 6.47909 10.9312 6.46855 10.9562C6.45768 10.9787 6.45252 11.0036 6.45354 11.0286C6.45455 11.0536 6.46171 11.0779 6.47438 11.0995C6.55818 11.2133 6.68159 11.2922 6.82068 11.3208L10.5751 12.0937C10.6533 12.1098 10.7341 12.1095 10.8122 12.0929C10.8903 12.0762 10.964 12.0436 11.0286 11.997C11.0932 11.9505 11.1473 11.891 11.1874 11.8225C11.2275 11.754 11.2527 11.6779 11.2614 11.5992L11.6805 7.81898C11.696 7.67893 11.6585 7.53816 11.5753 7.42397C11.5591 7.40126 11.537 7.38334 11.5113 7.37214C11.4856 7.36094 11.4574 7.35687 11.4295 7.36037C11.4025 7.3655 11.3775 7.37792 11.3572 7.39628C11.3369 7.41464 11.3221 7.43821 11.3144 7.46438Z" fill="currentColor"/>
<path d="M5.9304 10.0862L8.30274 9.69776C8.35078 9.69275 8.39663 9.67529 8.4357 9.64714C8.47478 9.61898 8.50569 9.58113 8.52533 9.53737C8.54457 9.49311 8.5519 9.44465 8.54661 9.39674C8.54131 9.34882 8.52357 9.30309 8.49512 9.26401L5.55725 5.2536C5.52828 5.21183 5.48838 5.17869 5.44182 5.15775C5.39527 5.13681 5.34384 5.12887 5.29308 5.13478L2.6266 5.48919C2.60158 5.4918 2.5777 5.5009 2.55735 5.51556C2.537 5.53022 2.5209 5.54994 2.51067 5.57273C2.50076 5.5948 2.49694 5.61908 2.49959 5.6431C2.50225 5.66711 2.51128 5.68999 2.52577 5.70941L5.65906 9.98657C5.69131 10.0255 5.73344 10.0553 5.78113 10.0728C5.82881 10.0903 5.88033 10.0949 5.9304 10.0862ZM2.72479 4.61739L5.20752 4.28295C5.25504 4.27638 5.3002 4.25832 5.33902 4.23035C5.37784 4.20238 5.40912 4.16536 5.4301 4.12256L6.51465 1.87949C6.53294 1.83987 6.54235 1.79678 6.54223 1.75319C6.5421 1.70961 6.53245 1.66657 6.51392 1.62705C6.49368 1.58875 6.46505 1.55542 6.43013 1.52952C6.39522 1.50361 6.3549 1.48578 6.31214 1.47733L3.41139 0.883293C3.33318 0.867187 3.25245 0.867468 3.17436 0.88412C3.09627 0.900771 3.02255 0.933426 2.95793 0.979988C2.89331 1.02655 2.83922 1.08599 2.79912 1.15451C2.75902 1.22302 2.7338 1.29908 2.72508 1.37783L2.40171 4.3021C2.3966 4.34505 2.40124 4.38859 2.41529 4.42952C2.42935 4.47046 2.45246 4.50777 2.48293 4.5387C2.51511 4.56838 2.55339 4.59079 2.59515 4.60438C2.6369 4.61796 2.68113 4.6224 2.72479 4.61739ZM7.38436 2.06088L6.22051 4.46649C6.19785 4.51256 6.18844 4.56394 6.19332 4.61497C6.1982 4.666 6.21719 4.71471 6.24819 4.75573L9.18943 8.77074C9.21811 8.80965 9.25648 8.84052 9.30079 8.86032C9.34511 8.88012 9.39384 8.88818 9.44223 8.8837C9.49026 8.8787 9.53611 8.86124 9.57519 8.83309C9.61426 8.80493 9.64517 8.76707 9.66481 8.72332L10.7716 6.59771C10.7968 6.55063 10.8081 6.49749 10.8042 6.44435C10.8004 6.39122 10.7815 6.34022 10.7499 6.29719L7.63006 2.03843C7.61592 2.01876 7.59677 2.00316 7.57456 1.99324C7.55235 1.98332 7.52789 1.97942 7.50366 1.98194C7.47854 1.98355 7.45428 1.99169 7.43334 2.00555C7.4124 2.0194 7.3955 2.03849 7.38436 2.06088Z" fill="currentColor"/>
</svg>
