<svg width="28" height="28" viewBox="0 0 28 28" fill="none" xmlns="http://www.w3.org/2000/svg">
<path d="M4.31958 14.1107C4.6662 14.4573 5.01282 14.5664 5.69675 14.5664L13.1963 14.6061C13.2656 14.6061 13.3248 14.6061 13.3548 14.6454C13.3844 14.675 13.3941 14.7346 13.3941 14.7942L13.4237 22.3037C13.4339 22.9872 13.5429 23.3338 13.8896 23.6804C14.3554 24.156 15.0093 24.0769 15.4945 23.6014C15.7524 23.3435 15.9604 22.9179 16.1485 22.5214L23.7275 6.17558C24.1236 5.34372 24.0741 4.72913 23.6683 4.32293C23.2714 3.92687 22.6572 3.87741 21.8254 4.27347L5.47863 11.8523C5.08214 12.0404 4.65648 12.2484 4.39863 12.5062C3.92309 12.9914 3.84404 13.6352 4.31958 14.1107Z" fill="black"/>
</svg>
