<svg width="12" height="15" viewBox="0 0 12 15" fill="none" xmlns="http://www.w3.org/2000/svg">
<path d="M5.56501 14.861C5.69203 14.9514 5.84407 15 6 15C6.15593 15 6.30798 14.9514 6.435 14.861C6.66299 14.6997 12.0217 10.8303 11.9999 6.00019C11.9999 2.69183 9.30821 0 6 0C2.69179 0 6.60276e-05 2.69183 6.60276e-05 5.99643C-0.0216837 10.8303 5.33701 14.6997 5.56501 14.861ZM6 1.50005C8.48172 1.50005 10.5 3.51836 10.5 6.00394C10.5157 9.33254 7.20899 12.3214 6 13.3017C4.79176 12.3206 1.4843 9.33104 1.50005 6.00019C1.50005 3.51836 3.51828 1.50005 6 1.50005Z" fill="black"/>
</svg>
